<svg xmlns="http://www.w3.org/2000/svg" enable-background="new 0 0 32 32" viewBox="0 0 32 32"><line x1="29" x2="3" y1="16" y2="16" fill="none" stroke="#000" stroke-linecap="round" stroke-linejoin="round" stroke-miterlimit="10" stroke-width="2"/><path fill="none" stroke="#000" stroke-linecap="round" stroke-linejoin="round" stroke-miterlimit="10" stroke-width="2" d="M12 5.597C7.822 7.204 4.857 11.256 4.857 16M20 5.597c4.178 1.607 7.143 5.659 7.143 10.403M19.517 10l.479-5.748C20.052 3.578 19.52 3 18.843 3h-5.687c-.677 0-1.209.578-1.153 1.253L12.483 10M6 20h20c.552 0 1 .448 1 1v5l-2 2h-6c0 0-2-3-3-3s-3 3-3 3H7l-2-2v-5C5 20.448 5.448 20 6 20z"/><line x1="5" x2="3" y1="22" y2="22" fill="none" stroke="#000" stroke-linecap="round" stroke-linejoin="round" stroke-miterlimit="10" stroke-width="2"/><line x1="29" x2="27" y1="22" y2="22" fill="none" stroke="#000" stroke-linecap="round" stroke-linejoin="round" stroke-miterlimit="10" stroke-width="2"/></svg>